<svg width="85" height="22" viewBox="0 0 85 22" fill="none" xmlns="http://www.w3.org/2000/svg">
<path d="M0 11C0 4.92487 4.92487 0 11 0H74C80.07513 0 85 4.92487 85 11V11C85 17.0751 80.07513 22 74 22H11C4.92486 22 0 17.0751 0 11V11Z" fill="#e06b19"/>
<path d="M12.35 15L9.50 15L9.50 6.28L12.35 6.28Q13.68 6.28 14.66 6.82Q15.64 7.36 16.18 8.34Q16.72 9.31 16.72 10.64L16.72 10.64Q16.72 11.95 16.18 12.93Q15.64 13.91 14.66 14.46Q13.68 15 12.35 15L12.35 15ZM10.65 7.34L10.65 13.95L12.37 13.95Q13.34 13.95 14.04 13.54Q14.75 13.13 15.14 12.39Q15.53 11.64 15.53 10.64L15.53 10.64Q15.53 9.62 15.13 8.88Q14.74 8.14 14.03 7.74Q13.33 7.34 12.37 7.34L12.37 7.34L10.65 7.34ZM20.94 15.14L20.94 15.14Q20.03 15.14 19.32 14.71Q18.60 14.27 18.19 13.52Q17.78 12.77 17.78 11.83L17.78 11.83Q17.78 10.88 18.19 10.14Q18.59 9.41 19.29 8.98Q19.98 8.55 20.85 8.55L20.85 8.55Q21.55 8.55 22.09 8.80Q22.64 9.06 23.02 9.48Q23.40 9.91 23.60 10.45Q23.81 11.00 23.81 11.58L23.81 11.58Q23.81 11.71 23.79 11.87Q23.77 12.03 23.75 12.17L23.75 12.17L18.58 12.17L18.58 11.23L23.12 11.23L22.60 11.65Q22.71 11.05 22.49 10.57Q22.26 10.09 21.83 9.81Q21.40 9.52 20.85 9.52L20.85 9.52Q20.30 9.52 19.84 9.81Q19.39 10.09 19.13 10.61Q18.88 11.13 18.93 11.84L18.93 11.84Q18.88 12.53 19.15 13.05Q19.41 13.57 19.89 13.86Q20.38 14.15 20.95 14.15L20.95 14.15Q21.59 14.15 22.02 13.85Q22.45 13.56 22.72 13.10L22.72 13.10L23.63 13.57Q23.45 14.01 23.05 14.36Q22.66 14.72 22.13 14.93Q21.60 15.14 20.94 15.14ZM26.31 17.34L25.22 17.34L25.22 8.69L26.29 8.69L26.29 10.05L26.15 9.78Q26.50 9.22 27.11 8.89Q27.72 8.55 28.50 8.55L28.50 8.55Q29.39 8.55 30.10 8.99Q30.81 9.42 31.21 10.16Q31.62 10.91 31.62 11.85L31.62 11.85Q31.62 12.78 31.21 13.53Q30.81 14.27 30.10 14.71Q29.39 15.14 28.49 15.14L28.49 15.14Q27.73 15.14 27.10 14.80Q26.48 14.46 26.14 13.84L26.14 13.84L26.31 13.65L26.31 17.34ZM28.41 14.09L28.41 14.09Q29.00 14.09 29.47 13.79Q29.94 13.50 30.20 12.99Q30.47 12.48 30.47 11.85L30.47 11.85Q30.47 11.20 30.20 10.70Q29.94 10.20 29.47 9.90Q29.00 9.61 28.41 9.61L28.41 9.61Q27.81 9.61 27.34 9.90Q26.86 10.19 26.59 10.70Q26.31 11.21 26.31 11.85L26.31 11.85Q26.31 12.48 26.59 12.99Q26.86 13.50 27.34 13.79Q27.81 14.09 28.41 14.09ZM34.14 15L33.05 15L33.05 8.69L34.12 8.69L34.12 9.85L34.00 9.69Q34.22 9.15 34.68 8.89Q35.13 8.62 35.79 8.62L35.79 8.62L36.18 8.62L36.18 9.65L35.63 9.65Q34.96 9.65 34.55 10.07Q34.14 10.48 34.14 11.24L34.14 11.24L34.14 15ZM40.05 15.14L40.05 15.14Q39.14 15.14 38.42 14.71Q37.71 14.27 37.30 13.52Q36.89 12.77 36.89 11.83L36.89 11.83Q36.89 10.88 37.29 10.14Q37.70 9.41 38.39 8.98Q39.09 8.55 39.95 8.55L39.95 8.55Q40.66 8.55 41.20 8.80Q41.74 9.06 42.12 9.48Q42.51 9.91 42.71 10.45Q42.91 11.00 42.91 11.58L42.91 11.58Q42.91 11.71 42.90 11.87Q42.88 12.03 42.86 12.17L42.86 12.17L37.68 12.17L37.68 11.23L42.22 11.23L41.71 11.65Q41.81 11.05 41.59 10.57Q41.37 10.09 40.94 9.81Q40.50 9.52 39.95 9.52L39.95 9.52Q39.40 9.52 38.95 9.81Q38.49 10.09 38.24 10.61Q37.99 11.13 38.04 11.84L38.04 11.84Q37.99 12.53 38.25 13.05Q38.52 13.57 39.00 13.86Q39.49 14.15 40.06 14.15L40.06 14.15Q40.69 14.15 41.12 13.85Q41.56 13.56 41.83 13.10L41.83 13.10L42.74 13.57Q42.55 14.01 42.16 14.36Q41.77 14.72 41.24 14.93Q40.70 15.14 40.05 15.14ZM47.26 15.14L47.26 15.14Q46.33 15.14 45.61 14.71Q44.89 14.27 44.48 13.53Q44.07 12.78 44.07 11.84L44.07 11.84Q44.07 10.89 44.48 10.16Q44.89 9.42 45.61 8.99Q46.33 8.55 47.26 8.55L47.26 8.55Q47.88 8.55 48.41 8.78Q48.95 9.00 49.36 9.37Q49.77 9.75 49.96 10.25L49.96 10.25L48.99 10.72Q48.76 10.23 48.31 9.92Q47.85 9.61 47.26 9.61L47.26 9.61Q46.68 9.61 46.22 9.90Q45.76 10.19 45.49 10.69Q45.22 11.20 45.22 11.85L45.22 11.85Q45.22 12.48 45.49 12.99Q45.76 13.50 46.22 13.79Q46.68 14.09 47.26 14.09L47.26 14.09Q47.85 14.09 48.31 13.78Q48.76 13.47 48.99 12.95L48.99 12.95L49.96 13.44Q49.77 13.94 49.36 14.32Q48.95 14.70 48.41 14.92Q47.88 15.14 47.26 15.14ZM53.15 15.14L53.15 15.14Q52.53 15.14 52.06 14.91Q51.58 14.68 51.32 14.28Q51.05 13.88 51.05 13.35L51.05 13.35Q51.05 12.85 51.26 12.44Q51.48 12.04 51.94 11.76Q52.40 11.48 53.11 11.36L53.11 11.36L55.45 10.98L55.45 11.89L53.35 12.24Q52.74 12.34 52.47 12.62Q52.19 12.91 52.19 13.32L52.19 13.32Q52.19 13.70 52.50 13.96Q52.81 14.22 53.28 14.22L53.28 14.22Q53.88 14.22 54.32 13.96Q54.76 13.71 55.01 13.28Q55.26 12.85 55.26 12.32L55.26 12.32L55.26 10.72Q55.26 10.20 54.88 9.88Q54.50 9.56 53.88 9.56L53.88 9.56Q53.34 9.56 52.92 9.83Q52.51 10.11 52.31 10.57L52.31 10.57L51.36 10.07Q51.54 9.64 51.92 9.30Q52.31 8.95 52.82 8.75Q53.34 8.55 53.90 8.55L53.90 8.55Q54.63 8.55 55.18 8.83Q55.73 9.10 56.04 9.59Q56.35 10.07 56.35 10.72L56.35 10.72L56.35 15L55.28 15L55.28 13.81L55.48 13.88Q55.28 14.25 54.94 14.53Q54.60 14.81 54.15 14.98Q53.69 15.14 53.15 15.14ZM60.48 15.07L60.48 15.07Q59.55 15.07 59.05 14.54Q58.56 14.02 58.56 13.06L58.56 13.06L58.56 9.73L57.41 9.73L57.41 8.69L57.65 8.69Q58.07 8.69 58.31 8.44Q58.56 8.18 58.56 7.76L58.56 7.76L58.56 7.24L59.65 7.24L59.65 8.69L61.06 8.69L61.06 9.73L59.65 9.73L59.65 13.02Q59.65 13.34 59.75 13.57Q59.84 13.81 60.08 13.94Q60.31 14.08 60.70 14.08L60.70 14.08Q60.78 14.08 60.90 14.06Q61.03 14.05 61.13 14.04L61.13 14.04L61.13 15Q60.98 15.04 60.79 15.05Q60.61 15.07 60.48 15.07ZM65.27 15.14L65.27 15.14Q64.36 15.14 63.65 14.71Q62.93 14.27 62.52 13.52Q62.11 12.77 62.11 11.83L62.11 11.83Q62.11 10.88 62.52 10.14Q62.92 9.41 63.62 8.98Q64.31 8.55 65.18 8.55L65.18 8.55Q65.88 8.55 66.43 8.80Q66.97 9.06 67.35 9.48Q67.73 9.91 67.94 10.45Q68.14 11.00 68.14 11.58L68.14 11.58Q68.14 11.71 68.12 11.87Q68.10 12.03 68.08 12.17L68.08 12.17L62.91 12.17L62.91 11.23L67.45 11.23L66.93 11.65Q67.04 11.05 66.82 10.57Q66.60 10.09 66.16 9.81Q65.73 9.52 65.18 9.52L65.18 9.52Q64.63 9.52 64.17 9.81Q63.72 10.09 63.47 10.61Q63.21 11.13 63.26 11.84L63.26 11.84Q63.21 12.53 63.48 13.05Q63.74 13.57 64.23 13.86Q64.71 14.15 65.29 14.15L65.29 14.15Q65.92 14.15 66.35 13.85Q66.78 13.56 67.05 13.10L67.05 13.10L67.96 13.57Q67.78 14.01 67.39 14.36Q66.99 14.72 66.46 14.93Q65.93 15.14 65.27 15.14ZM72.42 15.14L72.42 15.14Q71.53 15.14 70.83 14.71Q70.12 14.27 69.71 13.53Q69.30 12.78 69.30 11.85L69.30 11.85Q69.30 10.91 69.71 10.16Q70.12 9.42 70.83 8.99Q71.53 8.55 72.42 8.55L72.42 8.55Q73.21 8.55 73.81 8.89Q74.42 9.22 74.77 9.78L74.77 9.78L74.60 10.05L74.60 6.14L75.70 6.14L75.70 15L74.63 15L74.63 13.65L74.77 13.84Q74.45 14.46 73.82 14.80Q73.19 15.14 72.42 15.14ZM72.52 14.09L72.52 14.09Q73.11 14.09 73.58 13.79Q74.05 13.50 74.32 12.99Q74.60 12.48 74.60 11.85L74.60 11.85Q74.60 11.21 74.32 10.70Q74.05 10.19 73.58 9.90Q73.11 9.61 72.52 9.61L72.52 9.61Q71.93 9.61 71.46 9.90Q70.98 10.20 70.71 10.70Q70.44 11.20 70.44 11.85L70.44 11.85Q70.44 12.48 70.71 12.99Q70.98 13.50 71.45 13.79Q71.92 14.09 72.52 14.09Z" fill="#FFFFFF"/>
</svg>
